<svg version="1.1" xmlns="http://www.w3.org/2000/svg" xmlns:xlink="http://www.w3.org/1999/xlink" width="681.93257" height="521.01393" viewBox="0,0,681.93257,521.01393"><defs><linearGradient x1="215.22523" y1="-60.29332" x2="215.22523" y2="383.14954" gradientUnits="userSpaceOnUse" id="color-1"><stop offset="0" stop-color="#35fff2"/><stop offset="1" stop-color="#7277ff"/></linearGradient><linearGradient x1="325.69211" y1="258.75001" x2="325.69211" y2="414.00001" gradientUnits="userSpaceOnUse" id="color-2"><stop offset="0" stop-color="#369eff"/><stop offset="1" stop-color="#1921ff"/></linearGradient><linearGradient x1="4.19211" y1="-38.25" x2="4.19211" y2="82.36458" gradientUnits="userSpaceOnUse" id="color-3"><stop offset="0" stop-color="#1921ff"/><stop offset="1" stop-color="#369eff"/></linearGradient><linearGradient x1="489.08828" y1="176.753" x2="489.08828" y2="399.00301" gradientUnits="userSpaceOnUse" id="color-4"><stop offset="0" stop-color="#369eff"/><stop offset="1" stop-color="#1921ff"/></linearGradient><linearGradient x1="63.69211" y1="-60.25" x2="63.69211" y2="27.70833" gradientUnits="userSpaceOnUse" id="color-5"><stop offset="0" stop-color="#1921ff"/><stop offset="1" stop-color="#369eff"/></linearGradient><linearGradient x1="475.77875" y1="262.75001" x2="475.77875" y2="460.72061" gradientUnits="userSpaceOnUse" id="color-6"><stop offset="0" stop-color="#0084ff"/><stop offset="1" stop-color="#0008ff"/></linearGradient></defs><g transform="translate(80.54955,60.29332)"><g data-paper-data="{&quot;isPaintingLayer&quot;:true}" fill-rule="nonzero" stroke="none" stroke-width="0" stroke-linecap="butt" stroke-linejoin="miter" stroke-miterlimit="10" stroke-dasharray="" stroke-dashoffset="0" style="mix-blend-mode: normal"><path d="M-80.54955,383.14954v-443.44286h591.54955v443.44286z" fill="url(#color-1)"/><path d="M404.13421,336.37501c0,42.87111 -35.11973,77.625 -78.4421,77.625c-43.32238,0 -78.44211,-34.75389 -78.44211,-77.625c0,-42.87111 35.11973,-77.625 78.44211,-77.625c43.32238,0 78.4421,34.75389 78.4421,77.625z" fill="url(#color-2)"/><path d="M65.13421,22.05729c0,33.3068 -27.28471,60.30729 -60.9421,60.30729c-33.6574,0 -60.94211,-27.00049 -60.94211,-60.30729c0,-33.3068 27.28471,-60.30729 60.94211,-60.30729c33.6574,0 60.9421,27.00049 60.9421,60.30729z" fill="url(#color-3)"/><path d="M601.38302,287.878c0,61.37264 -50.27607,111.125 -112.29474,111.125c-62.01867,0 -112.29474,-49.75236 -112.29474,-111.125c0,-61.37264 50.27607,-111.125 112.29474,-111.125c62.01867,0 112.29474,49.75236 112.29474,111.125z" fill="url(#color-4)"/><path d="M108.13421,-16.27084c0,24.28902 -19.89741,43.97917 -44.4421,43.97917c-24.5447,0 -44.4421,-19.69014 -44.4421,-43.97917c0,-24.28902 19.89741,-43.97917 44.44211,-43.97917c24.5447,0 44.4421,19.69014 44.4421,43.97917z" fill="url(#color-5)"/><path d="M575.806,361.73531c0,54.66807 -44.78372,98.9853 -100.02725,98.9853c-55.24353,0 -100.02725,-44.31723 -100.02725,-98.9853c0,-54.66807 44.78372,-98.9853 100.02725,-98.9853c55.24353,0 100.02725,44.31723 100.02725,98.9853z" fill="url(#color-6)"/></g></g></svg>